<?xml version="1.0" encoding="UTF-8" standalone="no"?>
<!-- Created with Inkscape (http://www.inkscape.org/) -->

<svg
   width="420mm"
   height="297mm"
   viewBox="0 0 420 297"
   version="1.1"
   id="svg1"
   inkscape:version="1.3.2 (091e20e, 2023-11-25, custom)"
   sodipodi:docname="Safety 2.svg"
   xmlns:inkscape="http://www.inkscape.org/namespaces/inkscape"
   xmlns:sodipodi="http://sodipodi.sourceforge.net/DTD/sodipodi-0.dtd"
   xmlns="http://www.w3.org/2000/svg"
   xmlns:svg="http://www.w3.org/2000/svg">
  <sodipodi:namedview
     id="namedview1"
     pagecolor="#ffffff"
     bordercolor="#000000"
     borderopacity="0.25"
     inkscape:showpageshadow="2"
     inkscape:pageopacity="0.0"
     inkscape:pagecheckerboard="0"
     inkscape:deskcolor="#d1d1d1"
     inkscape:document-units="mm"
     inkscape:zoom="0.35945918"
     inkscape:cx="1246.3168"
     inkscape:cy="561.95532"
     inkscape:window-width="2560"
     inkscape:window-height="1351"
     inkscape:window-x="-9"
     inkscape:window-y="-9"
     inkscape:window-maximized="1"
     inkscape:current-layer="layer1" />
  <defs
     id="defs1" />
  <g
     inkscape:label="Слой 1"
     inkscape:groupmode="layer"
     id="layer1">
    <ellipse
       style="fill:#000000;stroke-width:0.264583"
       id="path1"
       cx="202.78438"
       cy="147.94795"
       rx="30.546467"
       ry="27.970261" />
    <ellipse
       style="fill:#000000;stroke-width:0.264583"
       id="path9"
       cx="266.08551"
       cy="147.94794"
       rx="33.490707"
       ry="26.49814" />
    <ellipse
       style="fill:#000000;stroke-width:0.264583"
       id="path10"
       cx="234.80296"
       cy="77.654274"
       rx="25.762081"
       ry="64.405205" />
    <path
       sodipodi:type="spiral"
       style="fill:none;fill-rule:evenodd;stroke:#000000;stroke-width:0.264583"
       id="path2"
       sodipodi:cx="52.996281"
       sodipodi:cy="59.620815"
       sodipodi:expansion="1"
       sodipodi:revolution="3"
       sodipodi:radius="74.723625"
       sodipodi:argument="-17.738003"
       sodipodi:t0="0"
       d="m 52.996281,59.620815 c 1.660721,3.35834 -3.707634,3.895505 -5.581782,2.760228 -5.078824,-3.076532 -3.582582,-10.408658 0.06133,-13.923791 6.518098,-6.287748 17.052828,-3.719423 22.265799,2.882881 7.650245,9.689146 3.892507,23.798764 -5.704435,30.607808 C 51.245977,91.023326 33.454841,86.030905 25.087373,73.421952 14.557769,57.554872 20.804573,36.037702 36.434916,26.130126 55.365356,14.130724 80.631458,21.641986 92.068751,40.299224 105.54721,62.286132 96.765699,91.314547 75.0781,104.27507 50.038909,119.2385 17.239663,109.18313 2.7602472,84.462862 -13.692185,56.374117 -2.3605531,19.798273 25.394007,3.8030003 56.530428,-14.141278 96.886962,-1.5317026 114.39588,29.258314 133.83409,63.441068 119.94536,107.5813 86.119009,126.60219" />
    <path
       sodipodi:type="spiral"
       style="fill:none;fill-rule:evenodd;stroke:#000000;stroke-width:0.264583"
       id="path3"
       sodipodi:cx="105.99256"
       sodipodi:cy="201.6803"
       sodipodi:expansion="1"
       sodipodi:revolution="3"
       sodipodi:radius="93.713982"
       sodipodi:argument="-18.276802"
       sodipodi:t0="0"
       d="m 105.99256,201.6803 c 3.94882,2.54643 -1.48434,6.57925 -4.23234,6.56319 -7.446933,-0.0435 -10.55456,-8.8991 -8.894047,-15.02788 2.97027,-10.96296 15.963237,-14.97743 25.823427,-11.22489 14.47023,5.507 19.5048,23.11359 13.55574,36.61896 -7.92917,18.00054 -30.2933,24.07511 -47.414508,15.88659 -21.54529,-10.30442 -28.667299,-37.48669 -18.217435,-58.21005 12.656186,-25.09876 44.687713,-33.27209 69.005583,-20.54828 28.65777,14.99458 37.88481,51.8935 22.87913,79.80112 -17.32464,32.22046 -59.102459,42.50279 -90.596661,25.20998 C 32.115736,241.09985 20.776984,194.43539 40.360621,159.35684 62.330503,120.00401 113.8871,107.60801 152.54837,129.48516 c 42.92133,24.28779 56.37519,80.74054 32.20252,122.98329" />
    <path
       sodipodi:type="spiral"
       style="fill:none;fill-rule:evenodd;stroke:#000000;stroke-width:0.264583"
       id="path4"
       sodipodi:cx="288.53531"
       sodipodi:cy="235.53903"
       sodipodi:expansion="1"
       sodipodi:revolution="3"
       sodipodi:radius="63.339615"
       sodipodi:argument="-18.884426"
       sodipodi:t0="0"
       d="m 288.53531,235.53903 c 3.17382,-0.11071 1.71509,4.22362 0.18402,5.27509 -4.14912,2.84943 -9.2907,-0.86542 -10.73421,-4.90705 -2.5821,-7.22954 3.07867,-14.47083 9.99813,-16.19332 10.1546,-2.52782 19.74222,5.29944 21.65243,15.08921 2.546,13.04823 -7.51992,25.04876 -20.18028,27.11153 -15.93177,2.5958 -30.37272,-9.73955 -32.57065,-25.27135 -2.66198,-18.81109 11.95857,-35.70663 30.36243,-38.02976 21.68832,-2.73772 41.04676,14.17716 43.48887,35.45351 2.81951,24.56438 -16.39548,46.39104 -40.54458,48.94797 -27.43973,2.90536 -51.73824,-18.61361 -54.40709,-45.63565 -2.99404,-30.31463 20.83163,-57.08755 50.72673,-59.8662 33.18923,-3.08482 62.43846,23.04954 65.32531,55.8178" />
    <path
       sodipodi:type="spiral"
       style="fill:none;fill-rule:evenodd;stroke:#000000;stroke-width:0.264583"
       id="path5"
       sodipodi:cx="359.19702"
       sodipodi:cy="89.799255"
       sodipodi:expansion="1"
       sodipodi:revolution="3"
       sodipodi:radius="3.0348508"
       sodipodi:argument="-20.175373"
       sodipodi:t0="0"
       d="m 359.19702,89.799255 c 0.0369,-0.147619 0.2172,-0.02308 0.24535,0.06134 0.0763,0.228777 -0.1628,0.416382 -0.36803,0.429368 -0.36709,0.02323 -0.62563,-0.333285 -0.61338,-0.674722 0.018,-0.501072 0.50532,-0.838994 0.98142,-0.797397 0.63456,0.05544 1.05397,0.677796 0.98141,1.288104 -0.0913,0.768011 -0.85047,1.269766 -1.5948,1.165427 -0.90148,-0.126368 -1.48602,-1.023245 -1.34944,-1.901488 0.16096,-1.034978 1.19608,-1.702575 2.20818,-1.533456 1.1685,0.195256 1.91932,1.368967 1.71747,2.514871 -0.22936,1.302049 -1.54188,2.136204 -2.82156,1.901486 -1.43561,-0.263319 -2.35319,-1.714813 -2.0855,-3.128254 0.29718,-1.569188 1.88776,-2.570242 3.43494,-2.269515" />
    <path
       sodipodi:type="spiral"
       style="fill:none;fill-rule:evenodd;stroke:#000000;stroke-width:0.264583"
       id="path6"
       sodipodi:cx="321.65799"
       sodipodi:cy="22.081783"
       sodipodi:expansion="1"
       sodipodi:revolution="3"
       sodipodi:radius="117.90285"
       sodipodi:argument="-16.734058"
       sodipodi:t0="0"
       d="m 321.65799,22.081783 c -3.0631,5.055968 -8.32657,-1.634559 -8.40335,-5.09107 -0.20808,-9.3669317 10.81922,-13.5876456 18.58549,-11.7156298 13.89204,3.3485971 19.39922,19.5471268 15.02791,32.0799108 -6.41508,18.392363 -28.37979,25.34526 -45.57433,18.340189 -22.91762,-9.336657 -31.34633,-37.247838 -21.65247,-59.0687506 12.19873,-27.4593914 46.13232,-37.3753914 72.56317,-24.9647494 32.0113,15.030951 43.42059,55.025977 28.27703,86.057592 -17.84616,36.569683 -63.92533,49.475895 -99.55201,31.589309 -41.13241,-20.650777 -55.53796,-72.828493 -34.90159,-113.046432 23.44835,-45.69818 81.73433,-61.604739 126.54085,-38.213869 50.26615,26.241021 67.67495,90.642125 41.52615,140.035272 -29.03013,54.835755 -99.55139,73.747735 -153.52969,44.838425" />
    <path
       sodipodi:type="spiral"
       style="fill:none;fill-rule:evenodd;stroke:#000000;stroke-width:0.264583"
       id="path7"
       sodipodi:cx="270.86987"
       sodipodi:cy="68.453529"
       sodipodi:expansion="1"
       sodipodi:revolution="3"
       sodipodi:radius="135.99782"
       sodipodi:argument="-18.163826"
       sodipodi:t0="0"
       d="m 270.86987,68.453529 c 5.27739,4.31787 -3.21672,9.244104 -7.17658,8.771373 C 252.96231,75.94383 249.93007,62.666098 253.32713,54.100362 259.40367,38.77827 278.79565,35.115287 292.39962,42.139412 312.364,52.447599 316.74313,78.659081 305.95536,97.159863 291.57697,121.8185 258.33521,126.9189 234.98696,112.31039 205.60556,93.927072 199.78307,53.566443 218.24164,25.394028 240.59744,-8.7265404 288.12247,-15.271638 321.10596,7.0539233 359.97586,33.363824 367.24403,88.07978 341.04085,125.8662 310.78824,169.49211 248.86452,177.48377 206.28062,147.39588 157.89408,113.20811 149.1786,44.065259 183.15615,-3.3123058 221.27383,-56.462773 297.64386,-65.902388 349.81229,-28.031566 407.72914,14.012225 417.89313,97.615327 376.12634,154.57253" />
    <path
       sodipodi:type="spiral"
       style="fill:none;fill-rule:evenodd;stroke:#000000;stroke-width:0.264583"
       id="path8"
       sodipodi:cx="370.23788"
       sodipodi:cy="155.30855"
       sodipodi:expansion="1"
       sodipodi:revolution="3"
       sodipodi:radius="161.21214"
       sodipodi:argument="-16.116451"
       sodipodi:t0="0"
       d="m 370.23788,155.30855 c -7.41787,3.21071 -7.98769,-8.4151 -5.33642,-12.329 7.18481,-10.60644 22.81933,-6.58 29.99443,1.65616 12.83457,14.73255 6.1476,37.15027 -8.64875,47.65984 -21.71423,15.42321 -51.70446,5.78217 -65.32526,-15.64132 -18.15437,-28.55415 -5.45005,-66.34168 22.6339,-82.990685 35.34079,-20.951069 81.01939,-5.136133 100.65611,29.626485 23.78269,42.10218 4.83293,95.72008 -36.61907,118.32152 -48.84974,26.63502 -110.43514,4.5365 -135.98694,-43.61164 -29.50057,-55.58894 -4.24457,-125.159792 50.60423,-153.652367 62.32268,-32.375075 139.89115,-3.955787 171.31778,57.596807 35.25592,69.05271 3.66928,154.62743 -64.58939,188.9832 -75.78005,38.14143 -169.36737,3.38448 -206.64862,-71.58196" />
    <path
       sodipodi:type="spiral"
       style="fill:none;fill-rule:evenodd;stroke:#000000;stroke-width:0.264583"
       id="path11"
       sodipodi:cx="217.13753"
       sodipodi:cy="207.56877"
       sodipodi:expansion="1"
       sodipodi:revolution="3"
       sodipodi:radius="19.819008"
       sodipodi:argument="-21.728153"
       sodipodi:t0="0"
       d="m 217.13753,207.56877 c -0.95953,-0.25833 -0.12517,-1.42087 0.42937,-1.59479 1.50275,-0.47132 2.69958,1.11203 2.76022,2.45353 0.10847,2.39963 -2.24976,4.04583 -4.4777,3.92565 -3.26959,-0.17637 -5.41869,-3.39811 -5.09107,-6.50186 0.43665,-4.13682 4.5496,-6.80209 8.52602,-6.2565 5.00392,0.68655 8.19077,5.70244 7.42193,10.55019 -0.93117,5.87126 -6.85602,9.58248 -12.57436,8.58735 -6.73886,-1.17273 -10.9761,-8.01004 -9.75277,-14.59852 1.41237,-7.60667 9.16435,-12.37099 16.62268,-10.91821 8.47463,1.65075 13.76676,10.31888 12.08363,18.64685 -1.88821,9.34272 -11.47356,15.16318 -20.67101,13.24906 -10.21091,-2.12504 -16.56008,-12.62836 -14.41449,-22.69518" />
    <path
       sodipodi:type="spiral"
       style="fill:none;fill-rule:evenodd;stroke:#000000;stroke-width:0.264583"
       id="path12"
       sodipodi:cx="78.022301"
       sodipodi:cy="96.42379"
       sodipodi:expansion="1"
       sodipodi:revolution="3"
       sodipodi:radius="143.71078"
       sodipodi:argument="-18.093136"
       sodipodi:t0="0"
       d="m 78.022301,96.42379 c 5.240492,4.94525 -4.08062,9.50389 -8.219325,8.71004 C 58.58734,102.98256 56.382137,88.760519 60.602215,79.98514 68.150945,64.288045 88.864932,61.874348 102.68028,70.293661 122.95485,82.649343 125.61443,110.60505 112.86247,129.30109 95.866119,154.21997 60.446142,157.11511 36.925676,139.974 7.3275687,118.40367 4.202626,75.425977 25.762043,47.10784 51.873387,12.810781 102.45683,9.4588884 135.55758,35.45349 c 39.00808,30.633738 42.58544,88.85092 12.14506,126.7249 C 112.55802,205.9054 46.68932,209.70739 4.0483756,174.81418 -44.402976,135.16628 -48.429132,61.634049 -9.0781281,14.23054 35.067751,-38.949034 116.27201,-43.199059 168.43488,0.61331828 226.34554,49.253361 230.81925,138.13589 182.54282,195.05569" />
    <path
       sodipodi:type="spiral"
       style="fill:none;fill-rule:evenodd;stroke:#000000;stroke-width:0.264583"
       id="path13"
       sodipodi:cx="222.28995"
       sodipodi:cy="211.98512"
       sodipodi:expansion="1"
       sodipodi:revolution="3"
       sodipodi:radius="114.99973"
       sodipodi:argument="-18.543999"
       sodipodi:t0="0"
       d="m 222.28995,211.98512 c 5.49882,1.73453 0.37482,8.26806 -2.8829,9.13941 -8.82821,2.3613 -15.37557,-7.11322 -15.39592,-14.9052 -0.0364,-13.93802 14.04126,-22.89921 26.92751,-21.65243 18.91108,1.8297 30.57447,21.03749 27.90894,38.94981 -3.55274,23.8743 -28.05455,38.31005 -50.97211,34.16545 -28.83942,-5.21557 -46.07598,-35.0807 -40.42197,-62.99441 6.84777,-33.80724 42.11183,-53.8593 75.01672,-46.67848 38.77727,8.46235 61.65352,49.14601 52.93498,87.03902 -10.06589,43.74898 -56.18224,69.45501 -99.06132,59.1915 -48.72193,-11.66206 -77.2616,-63.21992 -65.448,-111.08363 13.25306,-53.69584 70.25866,-85.071892 123.10592,-71.70452 58.67048,14.84033 92.88497,77.29821 77.96103,135.12823" />
    <path
       sodipodi:type="spiral"
       style="fill:none;fill-rule:evenodd;stroke:#000000;stroke-width:0.264583"
       id="path14"
       sodipodi:cx="348.89218"
       sodipodi:cy="117.76952"
       sodipodi:expansion="1"
       sodipodi:revolution="3"
       sodipodi:radius="273.87445"
       sodipodi:argument="-16.170408"
       sodipodi:t0="0"
       d="m 348.89218,117.76952 c -12.28932,6.1262 -14.32111,-13.5433 -10.18214,-20.425653 11.21634,-18.65074 38.10721,-13.252836 51.03345,0.06137 23.12202,23.815998 13.83235,62.457468 -10.30489,81.641248 -35.42236,28.15297 -87.18028,14.54589 -112.24904,-20.5484 C 233.77683,111.72292 251.86601,46.457207 297.98148,15.641242 356.01309,-23.137505 434.94998,-0.49455725 471.44612,56.676677 515.64784,125.9187 488.41446,218.61082 420.16717,260.74912 339.74009,310.40765 233.24364,278.56279 185.48693,199.22665 130.34991,107.62994 166.81941,-12.702107 257.25291,-66.061384 360.00921,-126.69159 494.19802,-85.588713 553.14875,15.948113 619.28255,129.85709 573.54019,277.91768 460.89573,342.45174 335.83903,414.09679 173.89563,363.71052 103.7843,239.95522" />
    <path
       sodipodi:type="spiral"
       style="fill:none;fill-rule:evenodd;stroke:#000000;stroke-width:0.264583"
       id="path15"
       sodipodi:cx="93.479546"
       sodipodi:cy="228.17844"
       sodipodi:expansion="1"
       sodipodi:revolution="3"
       sodipodi:radius="76.723381"
       sodipodi:argument="-17.768152"
       sodipodi:t0="0"
       d="m 93.479546,228.17844 c 1.808336,3.39524 -3.684556,4.11269 -5.643124,3.00557 -5.307598,-3.00023 -3.998952,-10.57147 -0.368024,-14.29182 6.494878,-6.65483 17.386112,-4.34504 22.940522,2.26952 8.1513,9.70714 4.73147,24.30409 -4.90708,31.58922 -12.846664,9.70993 -31.260149,5.1369 -40.23791,-7.54462 -11.297597,-15.95841 -5.552522,-38.23473 10.182172,-48.88661 19.056823,-12.90086 45.219788,-5.97412 57.535308,12.81972 14.5134,22.14788 6.39946,52.21141 -15.45727,66.184 -25.234467,16.13191 -59.207412,6.82732 -74.832703,-18.09482 -17.754448,-28.31812 -7.256928,-66.20647 20.732369,-83.4814 31.399762,-19.37985 73.207774,-7.6878 92.130094,23.36992 21.00736,34.47996 8.11963,80.21076 -26.00747,100.77879" />
    <path
       sodipodi:type="spiral"
       style="fill:none;fill-rule:evenodd;stroke:#000000;stroke-width:0.264583"
       id="path16"
       sodipodi:cx="330.49072"
       sodipodi:cy="156.78065"
       sodipodi:expansion="1"
       sodipodi:revolution="3"
       sodipodi:radius="258.87955"
       sodipodi:argument="-15.966734"
       sodipodi:t0="0"
       d="m 330.49072,156.78065 c -12.54765,3.32144 -10.66779,-15.2753 -5.52044,-20.85501 13.94901,-15.12069 37.81013,-4.9824 47.23048,9.81413 16.8508,26.46753 0.86322,60.46222 -25.14871,73.60594 -38.17356,19.28894 -83.48482,-3.20312 -99.9814,-40.48329 -21.98736,-49.68861 7.23644,-106.647221 55.81787,-126.35686 61.13477,-24.802568 129.87828,11.25056 152.73232,71.15245 27.6793,72.54921 -15.25316,153.14842 -86.48703,179.10778 C 285.18716,333.35799 192.69083,283.51732 163.65057,200.94418 130.12244,105.61023 186.88948,1.1903379 280.80675,-30.914515 387.52152,-67.39409 503.88289,-3.688542 539.04091,101.57624 578.4829,219.66743 507.83032,347.983 391.21557,386.18586 261.75111,428.59828 121.47195,350.99247 80.230496,223.02595" />
    <path
       sodipodi:type="spiral"
       style="fill:none;fill-rule:evenodd;stroke:#000000;stroke-width:0.264583"
       id="path17"
       sodipodi:cx="102.31226"
       sodipodi:cy="153.83643"
       sodipodi:expansion="1"
       sodipodi:revolution="3"
       sodipodi:radius="253.34671"
       sodipodi:argument="-18.264776"
       sodipodi:t0="0"
       d="m 102.31226,153.83643 c 10.59169,7.01192 -4.226365,17.73682 -11.654277,17.60408 -20.129182,-0.35971 -28.241852,-24.39924 -23.553891,-40.91264 8.385661,-29.5386 43.638858,-39.968153 70.171008,-29.5037 38.937,15.357 51.97413,63.11495 35.45351,99.42938 -22.0194,48.40142 -82.671772,64.0952 -128.687747,41.4033 C -13.865544,213.30142 -32.234122,139.59057 -3.3122514,83.910746 31.716009,16.475014 118.56962,-4.5778649 183.89222,30.607825 260.87266,72.072943 284.61568,172.11839 243.14495,247.07067 195.26535,333.60604 81.996935,360.04313 -2.5762568,312.2732 -98.673692,257.99396 -127.80764,131.48158 -73.728595,37.293625 -13.060076,-68.371022 126.71113,-100.20388 230.50934,-39.808518 345.74504,27.24178 380.27836,180.28269 313.56129,293.68779" />
    <path
       sodipodi:type="spiral"
       style="fill:none;fill-rule:evenodd;stroke:#000000;stroke-width:0.264583"
       id="path18"
       sodipodi:cx="365.82156"
       sodipodi:cy="142.79553"
       sodipodi:expansion="1"
       sodipodi:revolution="3"
       sodipodi:radius="324.02756"
       sodipodi:argument="-15.944127"
       sodipodi:t0="0"
       d="m 365.82156,142.79553 c -15.79527,3.80121 -12.91678,-19.41633 -6.31785,-26.25278 17.88269,-18.526363 47.45406,-5.16486 58.82342,13.61708 20.33713,33.59648 -0.63051,75.68284 -33.55201,91.39406 C 336.4615,244.61073 280.39837,215.18364 260.81042,168.06694 234.70277,105.2678 272.88305,34.820404 334.2323,11.531605 411.43406,-17.774972 496.43508,29.284527 523.33828,104.88841 555.92165,196.45485 499.91837,296.09666 410.04653,326.56503 304.13569,362.47095 189.80205,297.48658 155.79928,193.33836 116.54173,73.095114 190.53066,-55.962897 308.96089,-93.479537 443.52884,-136.10833 587.33331,-53.09914 628.34942,79.617002 674.36329,228.50446 582.32283,387.07108 435.31795,431.57617 272.11467,480.98526 98.774338,379.90548 50.788138,218.60977" />
  </g>
</svg>
